<?plantuml 1.2026.2?><svg xmlns="http://www.w3.org/2000/svg" xmlns:xlink="http://www.w3.org/1999/xlink" contentStyleType="text/css" data-diagram-type="CLASS" height="517px" preserveAspectRatio="none" style="width:664px;height:517px;background:#FFFFFF;" version="1.1" viewBox="0 0 664 517" width="664px" zoomAndPan="magnify"><defs/><g><path d="M66.39,6 L89.1214,6 A3.75,3.75 0 0 1 91.6214,8.5 L98.6214,28.4883 L103.1214,28.4883 A2.5,2.5 0 0 1 105.6214,30.9883 L105.6214,56.4766 A2.5,2.5 0 0 1 103.1214,58.9766 L66.39,58.9766 A2.5,2.5 0 0 1 63.89,56.4766 L63.89,8.5 A2.5,2.5 0 0 1 66.39,6" fill="#F1F1F1" style="stroke:#181818;stroke-width:0.5;"/><line style="stroke:#181818;stroke-width:0.5;" x1="63.89" x2="98.6214" y1="28.4883" y2="28.4883"/><text fill="#000000" font-family="sans-serif" font-size="14" font-weight="bold" lengthAdjust="spacing" textLength="21.7314" x="67.89" y="21.5352">src</text><path d="M109.39,457.9 L280.1195,457.9 A3.75,3.75 0 0 1 282.6195,460.4 L289.6195,480.3883 L294.1195,480.3883 A2.5,2.5 0 0 1 296.6195,482.8883 L296.6195,508.3766 A2.5,2.5 0 0 1 294.1195,510.8766 L109.39,510.8766 A2.5,2.5 0 0 1 106.89,508.3766 L106.89,460.4 A2.5,2.5 0 0 1 109.39,457.9" fill="#F1F1F1" style="stroke:#181818;stroke-width:0.5;"/><line style="stroke:#181818;stroke-width:0.5;" x1="106.89" x2="289.6195" y1="480.3883" y2="480.3883"/><text fill="#000000" font-family="sans-serif" font-size="14" font-weight="bold" lengthAdjust="spacing" textLength="169.7295" x="110.89" y="473.4352">src.core_domain_inputs</text><path d="M214.87,118.97 L398.6493,118.97 A3.75,3.75 0 0 1 401.1493,121.47 L408.1493,141.4583 L412.6493,141.4583 A2.5,2.5 0 0 1 415.1493,143.9583 L415.1493,169.4466 A2.5,2.5 0 0 1 412.6493,171.9466 L214.87,171.9466 A2.5,2.5 0 0 1 212.37,169.4466 L212.37,121.47 A2.5,2.5 0 0 1 214.87,118.97" fill="#F1F1F1" style="stroke:#181818;stroke-width:0.5;"/><line style="stroke:#181818;stroke-width:0.5;" x1="212.37" x2="408.1493" y1="141.4583" y2="141.4583"/><text fill="#000000" font-family="sans-serif" font-size="14" font-weight="bold" lengthAdjust="spacing" textLength="182.7793" x="216.37" y="134.5052">src.harvest_orchestration</text><path d="M67.2,231.95 L238.3123,231.95 A3.75,3.75 0 0 1 240.8123,234.45 L247.8123,254.4383 L252.3123,254.4383 A2.5,2.5 0 0 1 254.8123,256.9383 L254.8123,282.4266 A2.5,2.5 0 0 1 252.3123,284.9266 L67.2,284.9266 A2.5,2.5 0 0 1 64.7,282.4266 L64.7,234.45 A2.5,2.5 0 0 1 67.2,231.95" fill="#F1F1F1" style="stroke:#181818;stroke-width:0.5;"/><line style="stroke:#181818;stroke-width:0.5;" x1="64.7" x2="247.8123" y1="254.4383" y2="254.4383"/><text fill="#000000" font-family="sans-serif" font-size="14" font-weight="bold" lengthAdjust="spacing" textLength="170.1123" x="68.7" y="247.4852">src.linkedin_acquisition</text><path d="M80.13,344.93 L309.3956,344.93 A3.75,3.75 0 0 1 311.8956,347.43 L318.8956,367.4183 L323.3956,367.4183 A2.5,2.5 0 0 1 325.8956,369.9183 L325.8956,395.4066 A2.5,2.5 0 0 1 323.3956,397.9066 L80.13,397.9066 A2.5,2.5 0 0 1 77.63,395.4066 L77.63,347.43 A2.5,2.5 0 0 1 80.13,344.93" fill="#F1F1F1" style="stroke:#181818;stroke-width:0.5;"/><line style="stroke:#181818;stroke-width:0.5;" x1="77.63" x2="318.8956" y1="367.4183" y2="367.4183"/><text fill="#000000" font-family="sans-serif" font-size="14" font-weight="bold" lengthAdjust="spacing" textLength="228.2656" x="81.63" y="360.4652">src.linkedin_extraction_filtering</text><path d="M434.74,231.95 L640.7771,231.95 A3.75,3.75 0 0 1 643.2771,234.45 L650.2771,254.4383 L654.7771,254.4383 A2.5,2.5 0 0 1 657.2771,256.9383 L657.2771,282.4266 A2.5,2.5 0 0 1 654.7771,284.9266 L434.74,284.9266 A2.5,2.5 0 0 1 432.24,282.4266 L432.24,234.45 A2.5,2.5 0 0 1 434.74,231.95" fill="#F1F1F1" style="stroke:#181818;stroke-width:0.5;"/><line style="stroke:#181818;stroke-width:0.5;" x1="432.24" x2="650.2771" y1="254.4383" y2="254.4383"/><text fill="#000000" font-family="sans-serif" font-size="14" font-weight="bold" lengthAdjust="spacing" textLength="205.0371" x="436.24" y="247.4852">src.persistence_runtime_ops</text><path d="M143.21,6 L316.3116,6 A3.75,3.75 0 0 1 318.8116,8.5 L325.8116,28.4883 L330.3116,28.4883 A2.5,2.5 0 0 1 332.8116,30.9883 L332.8116,56.4766 A2.5,2.5 0 0 1 330.3116,58.9766 L143.21,58.9766 A2.5,2.5 0 0 1 140.71,56.4766 L140.71,8.5 A2.5,2.5 0 0 1 143.21,6" fill="#F1F1F1" style="stroke:#181818;stroke-width:0.5;"/><line style="stroke:#181818;stroke-width:0.5;" x1="140.71" x2="325.8116" y1="28.4883" y2="28.4883"/><text fill="#000000" font-family="sans-serif" font-size="14" font-weight="bold" lengthAdjust="spacing" textLength="172.1016" x="144.71" y="21.5352">src.runtime_entrypoints</text><!--link src.harvest_orchestration to src.core_domain_inputs--><g class="link" data-entity-1="ent0004" data-entity-2="ent0003" data-link-type="dependency" data-source-line="16" id="lnk9"><path codeLine="16" d="M326.4,172.35 C347.85,220.27 385.18,324.61 343.76,397.9 C328.61,424.71 306.6785,441.3406 280.0385,454.7606" fill="none" id="src.harvest_orchestration-to-src.core_domain_inputs" style="stroke:#181818;stroke-width:1;"/><polygon fill="#181818" points="274.68,457.46,284.5173,456.9833,279.1454,455.2105,280.9182,449.8386,274.68,457.46" style="stroke:#181818;stroke-width:1;"/></g><!--link src.harvest_orchestration to src.linkedin_acquisition--><g class="link" data-entity-1="ent0004" data-entity-2="ent0005" data-link-type="dependency" data-source-line="17" id="lnk10"><path codeLine="17" d="M278.04,172.2 C253.34,190 225.4578,210.0922 200.6878,227.9422" fill="none" id="src.harvest_orchestration-to-src.linkedin_acquisition" style="stroke:#181818;stroke-width:1;"/><polygon fill="#181818" points="195.82,231.45,205.4602,229.4334,199.8765,228.5268,200.7831,222.9431,195.82,231.45" style="stroke:#181818;stroke-width:1;"/></g><!--link src.harvest_orchestration to src.linkedin_extraction_filtering--><g class="link" data-entity-1="ent0004" data-entity-2="ent0006" data-link-type="dependency" data-source-line="18" id="lnk11"><path codeLine="18" d="M309.34,172.42 C303.71,201.18 292.3,248.33 272.76,284.93 C260.94,307.05 246.9207,324.37 231.9407,340.37" fill="none" id="src.harvest_orchestration-to-src.linkedin_extraction_filtering" style="stroke:#181818;stroke-width:1;"/><polygon fill="#181818" points="227.84,344.75,236.9111,340.9139,231.2573,341.1,231.0711,335.4462,227.84,344.75" style="stroke:#181818;stroke-width:1;"/></g><!--link src.harvest_orchestration to src.persistence_runtime_ops--><g class="link" data-entity-1="ent0004" data-entity-2="ent0007" data-link-type="dependency" data-source-line="19" id="lnk12"><path codeLine="19" d="M367.63,172.34 C404.69,190.15 448.3221,211.1011 485.4021,228.9211" fill="none" id="src.harvest_orchestration-to-src.persistence_runtime_ops" style="stroke:#181818;stroke-width:1;"/><polygon fill="#181818" points="490.81,231.52,484.4308,224.0163,486.3034,229.3542,480.9655,231.2269,490.81,231.52" style="stroke:#181818;stroke-width:1;"/></g><!--link src.linkedin_acquisition to src.core_domain_inputs--><g class="link" data-entity-1="ent0005" data-entity-2="ent0003" data-link-type="dependency" data-source-line="20" id="lnk13"><path codeLine="20" d="M114.53,285.29 C93.73,299.86 71.18,320.14 59.76,344.93 C49.91,366.31 48.17,377.41 59.76,397.9 C74.91,424.71 96.8415,441.3406 123.4815,454.7606" fill="none" id="src.linkedin_acquisition-to-src.core_domain_inputs" style="stroke:#181818;stroke-width:1;"/><polygon fill="#181818" points="128.84,457.46,122.6018,449.8386,124.3746,455.2105,119.0027,456.9833,128.84,457.46" style="stroke:#181818;stroke-width:1;"/></g><!--link src.linkedin_acquisition to src.linkedin_extraction_filtering--><g class="link" data-entity-1="ent0005" data-entity-2="ent0006" data-link-type="dependency" data-source-line="21" id="lnk14"><path codeLine="21" d="M169.5,285.18 C176.24,302.98 183.045,320.9689 189.805,338.8189" fill="none" id="src.linkedin_acquisition-to-src.linkedin_extraction_filtering" style="stroke:#181818;stroke-width:1;"/><polygon fill="#181818" points="191.93,344.43,192.4833,334.5967,190.1592,339.7541,185.0018,337.43,191.93,344.43" style="stroke:#181818;stroke-width:1;"/></g><!--link src.linkedin_extraction_filtering to src.core_domain_inputs--><g class="link" data-entity-1="ent0006" data-entity-2="ent0003" data-link-type="dependency" data-source-line="22" id="lnk15"><path codeLine="22" d="M201.76,398.15 C201.76,415.95 201.76,433.55 201.76,451.41" fill="none" id="src.linkedin_extraction_filtering-to-src.core_domain_inputs" style="stroke:#181818;stroke-width:1;"/><polygon fill="#181818" points="201.76,457.41,205.76,448.41,201.76,452.41,197.76,448.41,201.76,457.41" style="stroke:#181818;stroke-width:1;"/></g><!--link src.persistence_runtime_ops to src.core_domain_inputs--><g class="link" data-entity-1="ent0007" data-entity-2="ent0003" data-link-type="dependency" data-source-line="23" id="lnk16"><path codeLine="23" d="M523.88,285.42 C498.42,315.74 452.79,365.8 404.76,397.9 C367.24,422.98 326.8037,441.0087 288.0537,455.4187" fill="none" id="src.persistence_runtime_ops-to-src.core_domain_inputs" style="stroke:#181818;stroke-width:1;"/><polygon fill="#181818" points="282.43,457.51,292.2598,458.1222,287.1164,455.7672,289.4714,450.6239,282.43,457.51" style="stroke:#181818;stroke-width:1;"/></g><!--link src.runtime_entrypoints to src.core_domain_inputs--><g class="link" data-entity-1="ent0008" data-entity-2="ent0003" data-link-type="dependency" data-source-line="24" id="lnk17"><path codeLine="24" d="M198.61,59.4 C152.82,93.04 78.24,156.45 46.76,231.95 C18.37,300.04 6,334.53 43.76,397.9 C60.04,425.23 82.9979,441.8234 111.2579,454.9434" fill="none" id="src.runtime_entrypoints-to-src.core_domain_inputs" style="stroke:#181818;stroke-width:1;"/><polygon fill="#181818" points="116.7,457.47,110.2212,450.0521,112.1649,455.3645,106.8525,457.3082,116.7,457.47" style="stroke:#181818;stroke-width:1;"/></g><!--link src.runtime_entrypoints to src.harvest_orchestration--><g class="link" data-entity-1="ent0008" data-entity-2="ent0004" data-link-type="dependency" data-source-line="25" id="lnk18"><path codeLine="25" d="M254.62,59.22 C266.97,77.03 279.92,95.6901 292.31,113.5501" fill="none" id="src.runtime_entrypoints-to-src.harvest_orchestration" style="stroke:#181818;stroke-width:1;"/><polygon fill="#181818" points="295.73,118.48,293.8866,108.8052,292.88,114.3718,287.3134,113.3652,295.73,118.48" style="stroke:#181818;stroke-width:1;"/></g><!--link src.runtime_entrypoints to src.linkedin_acquisition--><g class="link" data-entity-1="ent0008" data-entity-2="ent0005" data-link-type="dependency" data-source-line="26" id="lnk19"><path codeLine="26" d="M222.24,59.43 C213.38,76.06 202.34,98.33 194.76,118.97 C180.69,157.26 171.4315,197.6275 165.7715,225.8075" fill="none" id="src.runtime_entrypoints-to-src.linkedin_acquisition" style="stroke:#181818;stroke-width:1;"/><polygon fill="#181818" points="164.59,231.69,170.2839,223.6539,165.5746,226.7879,162.4406,222.0785,164.59,231.69" style="stroke:#181818;stroke-width:1;"/></g><!--link src.runtime_entrypoints to src.persistence_runtime_ops--><g class="link" data-entity-1="ent0008" data-entity-2="ent0007" data-link-type="dependency" data-source-line="27" id="lnk20"><path codeLine="27" d="M319.21,59.36 C356.17,73.4 398.95,93.22 432.76,118.97 C474.45,150.73 506.8176,196.0724 526.1076,226.5024" fill="none" id="src.runtime_entrypoints-to-src.persistence_runtime_ops" style="stroke:#181818;stroke-width:1;"/><polygon fill="#181818" points="529.32,231.57,527.8798,221.827,526.643,227.347,521.123,226.1102,529.32,231.57" style="stroke:#181818;stroke-width:1;"/></g><?plantuml-src fP9HRW8n34J_znGH__G8lGG7YAnWm89rKZjRWH1t9wq45CNPKF4LQSTldCoiOdOC8sg2W2jC892ZE8wCG_cqXoswXKfOE51NJdSUBa_2HuY2VXr78FR4QSfwcpMa6j-1VADc7oNiobdMK-IxWwdM9WVYFQxB5WXV4oazULZYZ0KUovhmC-GtTCWenDlQovggJHEAacRaW5ucpZIYZ-aHK4ElZMuYSfPJYiH_KZQqNuDsVilbPwEV5o0hplzWLd8ly8seXcR3dKVECltBply8dTsjsZkOLVGRY9btbshMFmSr7dm5?></g></svg>